<?xml version="1.0" encoding="utf-8"?>
<!-- Generator: Adobe Illustrator 28.0.0, SVG Export Plug-In . SVG Version: 6.00 Build 0)  -->
<svg version="1.1" id="Layer_1" xmlns="http://www.w3.org/2000/svg" xmlns:xlink="http://www.w3.org/1999/xlink" x="0px" y="0px"
	 viewBox="0 0 1000 1000" style="enable-background:new 0 0 1000 1000;" xml:space="preserve">
<style type="text/css">
	.st0{fill:#FFFFFF;}
	.st1{fill:#58595B;}
	.st2{fill:#F7941D;}
	.st3{fill:#FFF200;stroke:#006838;stroke-width:20;stroke-linecap:round;stroke-linejoin:round;stroke-miterlimit:10;}
	.st4{fill:none;}
	.st5{fill:#231F20;}
	.st6{fill:none;stroke:#CCCCCC;stroke-width:3;stroke-linecap:round;stroke-linejoin:round;stroke-miterlimit:10;}
	.st7{fill:url(#SVGID_1_);}
	.st8{fill:url(#SVGID_00000147912166947767262250000005501133088840785062_);}
	.st9{fill:url(#SVGID_00000174588012826371467780000001643750771720415671_);}
	.st10{fill:url(#SVGID_00000072252280498727835890000015353145739763616649_);}
	.st11{fill:none;stroke:#006838;stroke-width:20;stroke-linecap:round;stroke-linejoin:round;stroke-miterlimit:10;}
</style>
<g>
	<path class="st0" d="M321.01,276.1c9.17-10.99,22.96-17.98,38.39-17.98c6.83,0,13.34,1.37,19.26,3.85
		c5.93-2.48,12.44-3.85,19.26-3.85c6.83,0,13.34,1.37,19.26,3.85c5.93-2.48,12.44-3.85,19.26-3.85c6.83,0,13.34,1.37,19.26,3.85
		c5.93-2.48,12.44-3.85,19.26-3.85c6.83,0,13.34,1.37,19.26,3.85c5.93-2.48,12.44-3.85,19.26-3.85c15.44,0,29.23,6.99,38.4,17.98"/>
	<path class="st1" d="M319.86,275.14c9.15-14.34,26.87-22.33,43.7-20.64c5.64,0.66,11.22,2.55,15.67,6.08c0.03,0.01-1.15,0-1.15,0
		c10.5-9.49,29.16-9.51,39.66-0.02c0.09,0.05-1.15,0-1.14,0.02c8.18-7.05,20.28-8.39,30.37-5.19c3.4,1.12,6.63,2.77,9.31,5.19
		c0,0-1.16,0-1.16,0c10.73-9.16,28.89-9.17,39.63-0.04c0.02,0.01,0.03,0.03,0.05,0.03c0,0-1.16,0-1.16,0
		c4.39-3.69,9.99-5.64,15.65-6.33c16.88-1.73,34.74,6.35,43.74,20.89c0.84,1.45-0.91,3.07-2.27,1.95c-1.99-1.71-4-3.31-6.07-4.79
		c-6.11-4.24-13.04-7.4-20.26-8.91c-10.26-2.22-19.99-0.71-30.57,0.03c-3.42-0.3-6.71-0.44-9.85-0.66
		c-9.7-0.71-18.85,0.11-28.64,0.62c-6.56-0.37-12.55-0.92-18.95-0.9c-6.32-0.05-12.17,0.55-18.66,0.86
		c-6.87-0.03-13.18-0.68-19.85-0.61c-6.32-0.05-12.14,0.48-18.67,0.61c-5.62-0.26-11.01-1.25-16.26-1.32
		c-9.85-0.54-19.74,1.54-28.46,6.21c-4.48,2.39-8.58,5.42-12.4,8.84c-0.62,0.55-1.58,0.49-2.13-0.13
		C319.54,276.44,319.5,275.69,319.86,275.14L319.86,275.14z"/>
</g>
<g>
	<path class="st0" d="M220.66,403.18c11.88-14.24,29.74-23.29,49.73-23.29c8.85,0,17.28,1.77,24.95,4.99
		c7.68-3.21,16.11-4.99,24.95-4.99c8.85,0,17.28,1.77,24.95,4.99c7.68-3.21,16.11-4.99,24.95-4.99c8.85,0,17.28,1.77,24.95,4.99
		c7.68-3.21,16.11-4.99,24.95-4.99c8.85,0,17.28,1.77,24.95,4.99c7.68-3.21,16.11-4.99,24.95-4.99c20,0,37.86,9.05,49.74,23.29"/>
	<path class="st1" d="M219.17,401.93c11.85-18.59,34.82-28.93,56.62-26.74c7.28,0.86,14.52,3.29,20.3,7.88c0,0-1.5,0-1.5,0
		c13.45-12.28,37.93-12.3,51.39,0c0.02,0.01-1.5,0-1.5,0c10.6-9.15,26.3-10.87,39.36-6.71c4.38,1.46,8.56,3.57,12.03,6.71
		c0.04,0.02-1.5,0-1.49,0.01c13.72-11.85,37.67-11.85,51.38-0.01c0.06,0.03-1.5,0-1.49,0.01c2.82-2.43,6.09-4.19,9.52-5.55
		c10.41-4.09,22.13-3.56,32.79-0.75c14.07,3.77,26.91,12.74,34.61,25.15c1.09,1.89-1.17,3.97-2.94,2.53
		c-2.57-2.21-5.18-4.29-7.86-6.21c-5.34-3.68-11.05-6.74-17.11-8.93c-15.9-6.12-32.23-3.85-48.8-2.59
		c-8.44-0.57-16.19-1.2-24.43-1.19c-8.37-0.08-16.2,0.8-24.79,1.13c-8.68-0.29-16.64-1.22-25.1-1.13
		c-8.64-0.12-16.84,0.94-25.7,1.12c-8.47-0.16-16-0.86-24.2-0.79c-8.19-0.07-15.73,0.63-24.2,0.79c0,0-1.29,0.01-1.29,0.01
		c-0.07,0-0.14,0-0.21-0.01c-6.69-0.69-12.96-1.5-19.55-1.7c-12.75-0.69-25.58,1.98-36.86,8.05c-5.8,3.11-11.12,7.01-16.07,11.44
		c-0.81,0.72-2.05,0.64-2.76-0.17C218.76,403.62,218.71,402.65,219.17,401.93L219.17,401.93z"/>
</g>
<g>
	<path class="st0" d="M528.13,352.86c9.17-10.99,22.96-17.98,38.39-17.98c6.83,0,13.34,1.37,19.26,3.85
		c5.93-2.48,12.44-3.85,19.26-3.85c6.83,0,13.34,1.37,19.26,3.85c5.93-2.48,12.44-3.85,19.26-3.85c6.83,0,13.34,1.37,19.26,3.85
		c5.93-2.48,12.44-3.85,19.26-3.85c6.83,0,13.34,1.37,19.26,3.85c5.93-2.48,12.44-3.85,19.26-3.85c15.44,0,29.23,6.99,38.4,17.98"/>
	<path class="st1" d="M526.98,351.89c9.15-14.34,26.87-22.33,43.7-20.64c5.64,0.66,11.22,2.55,15.67,6.08c0.03,0.01-1.15,0-1.15,0
		c10.5-9.49,29.16-9.51,39.66-0.02c0.09,0.05-1.15,0-1.14,0.02c8.18-7.05,20.28-8.39,30.37-5.19c3.4,1.12,6.63,2.77,9.31,5.19
		c0,0-1.16,0-1.16,0c10.73-9.16,28.89-9.17,39.63-0.04c0.02,0.01,0.03,0.03,0.05,0.03l-1.16,0c4.39-3.69,9.99-5.64,15.65-6.33
		c16.88-1.73,34.74,6.35,43.74,20.89c0.84,1.45-0.91,3.07-2.27,1.95c-1.99-1.71-4-3.31-6.07-4.79c-6.11-4.24-13.04-7.4-20.26-8.91
		c-10.26-2.22-19.99-0.71-30.57,0.03c-3.42-0.3-6.71-0.44-9.85-0.66c-9.7-0.71-18.85,0.11-28.64,0.62
		c-6.56-0.37-12.55-0.92-18.95-0.9c-6.32-0.05-12.17,0.55-18.66,0.86c-6.87-0.03-13.18-0.68-19.85-0.61
		c-6.32-0.05-12.14,0.48-18.67,0.61c-5.62-0.26-11.01-1.25-16.26-1.32c-9.85-0.54-19.74,1.54-28.46,6.21
		c-4.48,2.39-8.58,5.42-12.4,8.84c-0.62,0.55-1.58,0.49-2.13-0.13C526.66,353.2,526.62,352.45,526.98,351.89L526.98,351.89z"/>
</g>
<g>
	<path class="st2" d="M256.42,715.48c18.78-88.58,60.39-175.83,130.88-234.62c35.14-28.95,79.38-49.7,125.66-48.6
		c9.19,0.22,18.35,1.25,27.34,3.09c1.59,0.33,2.61,1.88,2.29,3.46c-0.32,1.58-1.86,2.6-3.43,2.29c-17.34-3.25-35.2-3.29-52.56-0.23
		c-70.8,13.03-125.35,68.68-161.29,128.26c-27.4,45.73-45.58,96.73-55.53,149.01C267.86,726.85,254.95,724.66,256.42,715.48
		L256.42,715.48z"/>
</g>
<path class="st3" d="M500,64.57C259.52,64.57,64.57,259.52,64.57,500S259.52,935.43,500,935.43S935.43,740.48,935.43,500
	S740.48,64.57,500,64.57z M500,825.13c-179.56,0-325.13-145.57-325.13-325.13S320.44,174.87,500,174.87S825.13,320.44,825.13,500
	S679.56,825.13,500,825.13z"/>
<g>
	<circle class="st4" cx="500" cy="500" r="352.45"/>
	<path class="st5" d="M257.09,226.74l-1.27-1.54l5.71-5.85l1.32,1.6c2.59,3.13,5.76,3.72,8.34,1.59c2.58-2.13,2.86-5.05,0.78-7.57
		c-2.23-2.7-4.96-3.76-13.62-4.36c-11.48-0.76-16.06-2.55-19.97-7.29c-5.28-6.39-5.04-13.62,1.17-18.74
		c6.21-5.12,13.34-3.99,18.67,2.46l0.91,1.11l-5.71,5.85l-1.01-1.23c-2.74-3.32-5.45-3.97-7.73-2.1c-2.27,1.88-2.4,4.36-0.17,7.06
		c2.23,2.7,5.21,3.56,13.62,4.36c11.44,1.09,16.06,2.55,19.97,7.29c5.07,6.15,4.42,14.12-1.78,19.25
		C270.12,233.76,262.16,232.89,257.09,226.74z"/>
	<path class="st5" d="M259.55,169.88l19.75-13.61l4.52,6.56l-12.79,8.82l8.82,12.79l10.17-7.01l4.52,6.56L284.37,191l9.27,13.45
		l12.79-8.82l4.52,6.56l-19.75,13.61L259.55,169.88z"/>
	<path class="st5" d="M285.99,152.02l23.39-13.37l3.96,6.92l-8.03,4.59l23.73,41.52l-7.33,4.19l-23.73-41.52l-8.03,4.59
		L285.99,152.02z"/>
	<path class="st5" d="M336.44,173.66l-18.11-39.57l7.68-3.52l18.11,39.57c1.36,2.97,3.93,3.81,6.4,2.68
		c2.46-1.13,3.51-3.62,2.15-6.6l-18.11-39.57l7.54-3.45l18.11,39.57c3.25,7.1,0.66,14.07-6.37,17.29S339.69,180.76,336.44,173.66z"
		/>
	<path class="st5" d="M391.43,140.53l-1.31,6.79l4.78,16.12l-8.1,2.4l-15.87-53.48l8.1-2.4l6.44,21.7l4.26-24.87l8.71-2.58
		l-4.65,26.07l21.36,27.16l-8.71,2.58L391.43,140.53z"/>
	<path class="st5" d="M434.04,141.12l-8.92,1.74l0.57,12.48l-8.29,1.62l-1.62-56.52l11.11-2.17l19.76,52.98l-8.45,1.65
		L434.04,141.12z M431.39,133.35l-7.84-22.26l1.11,23.57L431.39,133.35z"/>
	<path class="st5" d="M446.54,94.99l9.28-0.89l14.28,36.26l-3.57-37.29l8.25-0.79l5.32,55.53l-8.88,0.85l-14.51-34.48l3.4,35.54
		l-8.25,0.79L446.54,94.99z"/>
	<path class="st5" d="M489,91.56l13.23,0.22c8.05,0.13,13.14,5.47,13.01,13.52l-0.47,29.16c-0.13,8.05-5.4,13.22-13.44,13.09
		l-13.23-0.22L489,91.56z M501.05,139.58c3.27,0.05,5.21-1.83,5.26-5.09L506.8,105c0.05-3.27-1.83-5.21-5.09-5.26l-4.38-0.07
		l-0.65,39.84L501.05,139.58z"/>
	<path class="st5" d="M539.36,137.26l-9.04-0.86l-2.99,12.13l-8.41-0.8l14.48-54.67l11.27,1.07l3.93,56.42l-8.57-0.81L539.36,137.26
		z M539.01,129.07l-1.2-23.57l-5.62,22.92L539.01,129.07z"/>
	<path class="st5" d="M564.39,96.56l9.15,1.78l3.41,38.82l7.15-36.77l8.14,1.58l-10.65,54.76l-8.76-1.7l-4.14-37.18l-6.82,35.05
		l-8.14-1.58L564.39,96.56z"/>
	<path class="st5" d="M617.48,127.07l1.35-4.5c1.01-3.36-0.33-5.84-3.31-6.73c-2.98-0.89-5.46,0.44-6.47,3.8l-8.74,29.16
		c-1.01,3.36,0.33,5.84,3.31,6.73s5.46-0.44,6.46-3.8l2.84-9.47l-4.89-1.46l2.29-7.63l12.98,3.89l-5.13,17.1
		c-2.31,7.71-9.06,11.35-16.85,9.01c-7.79-2.33-11.42-9.08-9.11-16.79l8.74-29.16c2.31-7.71,9.06-11.34,16.85-9.01
		c7.79,2.33,11.42,9.08,9.11,16.79l-1.35,4.5L617.48,127.07z"/>
	<path class="st5" d="M638.98,161.73l0.83-1.81l7.76,2.57l-0.86,1.89c-1.69,3.7-0.82,6.81,2.22,8.19c3.05,1.39,5.79,0.36,7.14-2.61
		c1.45-3.19,1.21-6.11-2.05-14.16c-4.34-10.65-4.74-15.56-2.19-21.14c3.44-7.54,10.03-10.49,17.36-7.16
		c7.33,3.34,9.43,10.25,5.96,17.87l-0.59,1.31l-7.76-2.57l0.66-1.45c1.78-3.92,1.19-6.64-1.5-7.86c-2.68-1.22-4.97-0.25-6.42,2.94
		c-1.45,3.19-0.92,6.24,2.05,14.16c4.03,10.77,4.74,15.56,2.19,21.14c-3.3,7.25-10.76,10.16-18.08,6.83
		C638.38,176.52,635.68,168.98,638.98,161.73z"/>
	<path class="st5" d="M684.28,185.06l-7.89-4.5l-7.71,9.83l-7.34-4.18l35.65-43.89l9.83,5.6l-19.59,53.05l-7.48-4.26L684.28,185.06z
		 M687.33,177.44l8.58-21.99l-14.54,18.59L687.33,177.44z"/>
	<path class="st5" d="M723.61,158.18l10.85,7.58c6.6,4.61,7.83,11.89,3.22,18.49l-3.74,5.36c-4.61,6.6-11.87,7.95-18.47,3.34
		l-3.92-2.74l-12.96,18.56l-6.93-4.84L723.61,158.18z M719.7,186.17c2.68,1.87,5.34,1.4,7.21-1.28l3.92-5.62
		c1.87-2.68,1.4-5.34-1.28-7.21l-3.59-2.51l-9.86,14.11L719.7,186.17z"/>
	<path class="st5" d="M753.13,179.66l6.57,5.31l-35.07,43.4l-6.57-5.31L753.13,179.66z"/>
</g>
<g>
	<circle class="st4" cx="500" cy="500" r="341.47"/>
	<path d="M714.19,778.21l6.42-5.07l33.5,42.42l-6.42,5.07L714.19,778.21z"/>
	<path d="M689.16,796.03l10.56-7.27c6.42-4.42,13.45-3.07,17.87,3.35l3.59,5.22c4.42,6.42,3.18,13.47-3.24,17.89l-3.82,2.63
		l12.44,18.06l-6.74,4.64L689.16,796.03z M713.23,809.08c2.61-1.79,3.08-4.37,1.29-6.98l-3.77-5.47c-1.79-2.61-4.37-3.08-6.98-1.29
		l-3.5,2.41l9.46,13.74L713.23,809.08z"/>
	<path d="M697.36,840.11l-7.66,4.34l4.36,11.29l-7.12,4.04l-18.86-51.43l9.54-5.41l34.44,42.6l-7.25,4.11L697.36,840.11z
		 M692.54,833.79l-14.04-18.04l8.27,21.32L692.54,833.79z"/>
	<path d="M651.36,862.59l-0.8-1.75l6.81-4.05l0.84,1.83c1.64,3.58,4.46,4.92,7.41,3.57c2.95-1.35,3.94-4.01,2.62-6.89
		c-1.42-3.09-3.71-4.76-11.67-7.48c-10.55-3.57-14.4-6.4-16.87-11.81c-3.34-7.3-1.32-14,5.77-17.25c7.09-3.25,13.49-0.4,16.87,6.97
		l0.58,1.26l-6.81,4.05l-0.64-1.4c-1.74-3.79-4.11-5.08-6.71-3.89c-2.6,1.19-3.33,3.48-1.92,6.57c1.41,3.09,3.99,4.63,11.66,7.48
		c10.44,3.88,14.4,6.4,16.87,11.81c3.21,7.02,0.62,14.33-6.48,17.57S654.57,869.61,651.36,862.59z"/>
	<path d="M614.43,849.79l-1.36-4.35c-1.01-3.24-3.43-4.51-6.3-3.62c-2.88,0.9-4.14,3.31-3.13,6.56l8.77,28.16
		c1.01,3.24,3.43,4.51,6.3,3.62c2.88-0.9,4.14-3.31,3.13-6.56l-2.85-9.14l-4.72,1.47l-2.3-7.37l12.53-3.9l5.14,16.51
		c2.32,7.45-1.13,14.02-8.65,16.36c-7.52,2.34-14.09-1.11-16.41-8.55l-8.77-28.16c-2.32-7.45,1.13-14.02,8.65-16.36
		c7.52-2.34,14.09,1.11,16.41,8.55l1.36,4.35L614.43,849.79z"/>
	<path d="M559.1,846.39l8.84-1.86l17.67,33.37l-7.47-35.51l7.86-1.65l11.12,52.89l-8.46,1.78l-17.69-31.63l7.12,33.85l-7.86,1.65
		L559.1,846.39z"/>
	<path d="M549.41,890.09l-8.74,1l-0.4,12.09l-8.13,0.93l2.76-54.71l10.89-1.25l15.04,52.68l-8.28,0.95L549.41,890.09z
		 M547.44,882.39l-5.87-22.1l-0.73,22.85L547.44,882.39z"/>
	<path d="M496.66,851.26l12.81-0.33c7.8-0.2,12.94,4.77,13.14,12.56l0.72,28.25c0.2,7.8-4.69,13.02-12.49,13.22l-12.81,0.33
		L496.66,851.26z M510.27,897.26c3.17-0.08,4.97-1.98,4.89-5.15l-0.73-28.56c-0.08-3.16-1.98-4.97-5.15-4.89l-4.25,0.11l0.98,38.6
		L510.27,897.26z"/>
	<path d="M462.14,849.31l9.01,0.61l7.94,36.92l2.46-36.21l8.01,0.54l-3.66,53.93l-8.63-0.59l-8.44-35.25l-2.34,34.51l-8.01-0.54
		L462.14,849.31z"/>
	<path d="M441,888.77l-8.69-1.41l-3.67,11.53l-8.08-1.31l17.48-51.92l10.82,1.75l0.2,54.78l-8.23-1.33L441,888.77z M441.19,880.82
		l0.34-22.86l-6.89,21.8L441.19,880.82z"/>
	<path d="M402.85,870.44l-4.47,4.99l-4.06,15.78l-7.93-2.04l13.46-52.35l7.93,2.04l-5.46,21.24l15.93-18.55l8.53,2.19l-16.85,19.35
		l4.22,33.21l-8.53-2.19L402.85,870.44z"/>
	<path d="M341.07,860l15.79-39.09l7.59,3.07l-15.79,39.09c-1.19,2.94-0.06,5.31,2.37,6.29c2.43,0.98,4.89,0.06,6.08-2.88
		l15.79-39.09l7.45,3.01l-15.79,39.09c-2.83,7.02-9.47,9.83-16.41,7.03C341.19,873.7,338.23,867.01,341.07,860z"/>
	<path d="M329.76,807.38l23.28,11.81l-3.49,6.89l-7.99-4.05l-20.96,41.32l-7.3-3.7l20.96-41.32l-7.99-4.05L329.76,807.38z"/>
	<path d="M307.84,794.04l19.82,12.14l-4.03,6.58l-12.84-7.87l-7.87,12.84l10.21,6.25l-4.03,6.58l-10.21-6.25l-8.27,13.5l12.84,7.87
		l-4.04,6.58l-19.82-12.14L307.84,794.04z"/>
	<path d="M257.67,809.2l1.14-1.56l6.86,3.97l-1.19,1.62c-2.33,3.18-2.12,6.29,0.5,8.21c2.62,1.92,5.42,1.48,7.29-1.07
		c2.01-2.74,2.34-5.56,0.84-13.83c-2.03-10.96-1.43-15.69,2.08-20.49c4.74-6.48,11.58-7.98,17.88-3.37
		c6.29,4.61,6.93,11.58,2.14,18.12l-0.82,1.12l-6.86-3.97l0.91-1.25c2.46-3.36,2.43-6.07,0.13-7.75c-2.31-1.69-4.66-1.21-6.67,1.53
		c-2.01,2.74-2.1,5.74-0.84,13.83c1.7,11.01,1.43,15.69-2.08,20.49c-4.56,6.23-12.21,7.52-18.5,2.92
		C254.19,823.1,253.11,815.43,257.67,809.2z"/>
</g>
<line class="st6" x1="532.86" y1="436.56" x2="609.56" y2="674.96"/>
<linearGradient id="SVGID_1_" gradientUnits="userSpaceOnUse" x1="499.92" y1="673.43" x2="499.92" y2="747.05">
	<stop  offset="0" style="stop-color:#2484C6"/>
	<stop  offset="1" style="stop-color:#2484C6;stop-opacity:0"/>
</linearGradient>
<path class="st7" d="M774.58,674.17c-16.33,25.71-36.19,48.97-58.87,69.1c-14.59-7.08-30.96-11.04-48.25-11.04
	c-20.18,0-39.09,5.39-55.38,14.82c-16.29-9.43-35.2-14.82-55.37-14.82c-20.18,0-39.09,5.39-55.38,14.82
	c-16.29-9.43-35.2-14.82-55.37-14.82c-20.17,0-39.09,5.39-55.38,14.82c-16.29-9.43-35.2-14.82-55.37-14.82
	c-17.98,0-34.95,4.28-49.96,11.88c-23.16-20.38-43.4-44.02-59.99-70.19c3.74-0.33,7.52-0.49,11.34-0.49
	c23.86,0,46.23,6.38,65.5,17.53c9.45-5.47,19.65-9.79,30.4-12.77c11.17-3.1,22.94-4.76,35.1-4.76c15.8,0,30.95,2.8,44.98,7.93
	c7.15,2.61,14.01,5.83,20.52,9.6c9.45-5.47,19.65-9.79,30.4-12.77c11.17-3.1,22.94-4.76,35.1-4.76c15.8,0,30.95,2.8,44.98,7.93
	c7.15,2.61,14.01,5.83,20.52,9.6c9.45-5.47,19.65-9.79,30.4-12.77c11.17-3.1,22.94-4.76,35.1-4.76c15.8,0,30.95,2.8,44.98,7.93
	c7.15,2.61,14.01,5.83,20.52,9.6c19.27-11.15,41.64-17.53,65.5-17.53C765.32,673.43,769.99,673.68,774.58,674.17z"/>
<linearGradient id="SVGID_00000050630229177898256520000005446272779820983169_" gradientUnits="userSpaceOnUse" x1="499.14" y1="772.02" x2="499.14" y2="825.13">
	<stop  offset="0" style="stop-color:#2484C6"/>
	<stop  offset="1" style="stop-color:#2484C6;stop-opacity:0"/>
</linearGradient>
<path style="fill:url(#SVGID_00000050630229177898256520000005446272779820983169_);" d="M658.7,783.83
	c-46.94,26.31-101.07,41.3-158.7,41.3c-58.34,0-113.09-15.36-160.42-42.28c5.79-2.77,11.85-5.06,18.14-6.8
	c9.44-2.62,19.39-4.03,29.67-4.03c13.36,0,26.17,2.37,38.03,6.71c6.05,2.2,11.85,4.93,17.35,8.11c7.99-4.62,16.61-8.27,25.7-10.79
	c9.44-2.62,19.39-4.03,29.67-4.03c13.36,0,26.17,2.37,38.03,6.71c6.05,2.2,11.85,4.93,17.35,8.11c7.99-4.62,16.61-8.27,25.7-10.79
	c9.44-2.62,19.39-4.03,29.67-4.03c13.36,0,26.17,2.37,38.03,6.71C650.96,780.2,654.9,781.91,658.7,783.83z"/>
<linearGradient id="SVGID_00000085236459380935741300000001702091046469600180_" gradientUnits="userSpaceOnUse" x1="500.48" y1="732.23" x2="500.48" y2="786.84">
	<stop  offset="0" style="stop-color:#2484C6"/>
	<stop  offset="1" style="stop-color:#2484C6;stop-opacity:0"/>
</linearGradient>
<path style="fill:url(#SVGID_00000085236459380935741300000001702091046469600180_);" d="M715.71,743.27
	c-1.15,1.02-2.3,2.02-3.46,3.03c-1.05,0.9-2.1,1.79-3.16,2.68c-1.06,0.89-2.12,1.78-3.19,2.65c-1.37,1.13-2.75,2.24-4.15,3.34
	c-0.83,0.66-1.66,1.31-2.49,1.95c-0.22,0.19-0.45,0.36-0.69,0.54c-0.71,0.56-1.43,1.1-2.15,1.65c-3.74,2.84-7.54,5.6-11.41,8.28
	c-0.72,0.5-1.44,1-2.17,1.49c-1.44,0.99-2.89,1.96-4.36,2.92c-0.7,0.47-1.41,0.93-2.13,1.38c-0.71,0.48-1.43,0.93-2.15,1.39
	c-0.32,0.21-0.65,0.41-0.98,0.62c-0.91,0.58-1.82,1.15-2.74,1.71c-0.22,0.14-0.45,0.28-0.68,0.41c-1,0.62-2,1.23-3.01,1.83
	c-0.25,0.16-0.51,0.31-0.78,0.47c-0.66,0.39-1.32,0.78-1.98,1.16c-0.73,0.44-1.46,0.86-2.2,1.28c-1.04,0.6-2.08,1.2-3.13,1.78
	c-3.8-1.92-7.74-3.63-11.78-5.1c-11.86-4.34-24.67-6.71-38.03-6.71c-10.28,0-20.23,1.41-29.67,4.03
	c-9.09,2.52-17.71,6.17-25.7,10.79c-5.5-3.18-11.3-5.91-17.35-8.11c-11.86-4.34-24.67-6.71-38.03-6.71
	c-10.28,0-20.23,1.41-29.67,4.03c-9.09,2.52-17.71,6.17-25.7,10.79c-5.5-3.18-11.3-5.91-17.35-8.11
	c-11.86-4.34-24.67-6.71-38.03-6.71c-10.28,0-20.23,1.41-29.67,4.03c-6.29,1.74-12.35,4.03-18.14,6.8
	c-1.21-0.69-2.41-1.38-3.61-2.08c-0.01,0-0.02,0-0.03-0.01c-1.2-0.71-2.4-1.42-3.59-2.14c-1.2-0.72-2.39-1.45-3.58-2.19
	c-0.93-0.57-1.86-1.16-2.79-1.75c-3.79-2.4-7.52-4.88-11.19-7.43c-1.14-0.79-2.28-1.59-3.41-2.4s-2.26-1.62-3.38-2.45
	c-1.13-0.82-2.24-1.65-3.36-2.49c-1.11-0.83-2.21-1.68-3.31-2.53c-0.89-0.68-1.77-1.37-2.65-2.07c-0.74-0.58-1.48-1.17-2.21-1.76
	c-0.15-0.11-0.29-0.23-0.43-0.35c-0.64-0.51-1.27-1.02-1.9-1.54c-0.86-0.7-1.71-1.41-2.56-2.12c-1.07-0.89-2.13-1.79-3.18-2.69
	c-1.06-0.91-2.11-1.82-3.15-2.74c15.01-7.6,31.98-11.88,49.96-11.88c20.17,0,39.08,5.39,55.37,14.82
	c16.29-9.43,35.21-14.82,55.38-14.82c20.17,0,39.08,5.39,55.37,14.82c16.29-9.43,35.2-14.82,55.38-14.82
	c20.17,0,39.08,5.39,55.37,14.82c16.29-9.43,35.2-14.82,55.38-14.82C684.75,732.23,701.12,736.19,715.71,743.27z"/>
<linearGradient id="SVGID_00000006689518612679475090000013107840332423177147_" gradientUnits="userSpaceOnUse" x1="500.795" y1="626.36" x2="500.795" y2="690.96">
	<stop  offset="0" style="stop-color:#2484C6"/>
	<stop  offset="1" style="stop-color:#2484C6;stop-opacity:0"/>
</linearGradient>
<path style="fill:url(#SVGID_00000006689518612679475090000013107840332423177147_);" d="M784.23,657.98
	c-0.43,0.78-0.87,1.56-1.31,2.33c-0.29,0.51-0.57,1.02-0.87,1.52c-0.33,0.58-0.66,1.16-1,1.73c-0.5,0.87-1.01,1.73-1.53,2.59
	c-0.79,1.33-1.59,2.66-2.4,3.97c-0.02,0.05-0.05,0.09-0.08,0.13c-0.81,1.31-1.63,2.62-2.46,3.92c-4.59-0.49-9.26-0.74-13.98-0.74
	c-23.86,0-46.23,6.38-65.5,17.53c-6.51-3.77-13.37-6.99-20.52-9.6c-14.03-5.13-29.18-7.93-44.98-7.93c-12.16,0-23.93,1.66-35.1,4.76
	c-10.75,2.98-20.95,7.3-30.4,12.77c-6.51-3.77-13.37-6.99-20.52-9.6c-14.03-5.13-29.18-7.93-44.98-7.93
	c-12.16,0-23.93,1.66-35.1,4.76c-10.75,2.98-20.95,7.3-30.4,12.77c-6.51-3.77-13.37-6.99-20.52-9.6
	c-14.03-5.13-29.18-7.93-44.98-7.93c-12.16,0-23.93,1.66-35.1,4.76c-10.75,2.98-20.95,7.3-30.4,12.77
	c-19.27-11.15-41.64-17.53-65.5-17.53c-3.82,0-7.6,0.16-11.34,0.49c-0.5-0.77-0.98-1.54-1.46-2.32c-0.43-0.67-0.84-1.34-1.25-2.02
	c-0.39-0.63-0.77-1.25-1.14-1.88c-0.16-0.26-0.32-0.51-0.47-0.78c-0.49-0.8-0.97-1.61-1.44-2.42c-0.24-0.41-0.49-0.82-0.72-1.24
	c-0.48-0.82-0.95-1.64-1.42-2.47c23.31-21.39,54.39-34.43,88.51-34.43c23.86,0,46.23,6.38,65.5,17.53
	c19.27-11.15,41.64-17.53,65.5-17.53s46.23,6.38,65.5,17.53c19.27-11.15,41.64-17.53,65.5-17.53s46.23,6.38,65.5,17.53
	c19.27-11.15,41.64-17.53,65.5-17.53C731.47,626.36,761.31,638.27,784.23,657.98z"/>
<circle class="st11" cx="500" cy="500" r="325.13"/>
<g>
</g>
<g>
</g>
<g>
</g>
<g>
</g>
<g>
</g>
<g>
</g>
</svg>
